<?xml version="1.0" encoding="iso-8859-1"?>
<!-- Uploaded to: SVG Repo, www.svgrepo.com, Generator: SVG Repo Mixer Tools -->
<!DOCTYPE svg PUBLIC "-//W3C//DTD SVG 1.1//EN" "http://www.w3.org/Graphics/SVG/1.1/DTD/svg11.dtd">
<svg fill="#000000" height="800px" width="800px" version="1.1" id="Capa_1" xmlns="http://www.w3.org/2000/svg" xmlns:xlink="http://www.w3.org/1999/xlink" 
	 viewBox="0 0 327.23 327.23" xml:space="preserve">
<g>
	<path d="M251.43,114.299c-10.244,12.984-26.143,21.329-43.9,21.329c-17.797,0-33.658-8.345-43.92-21.329
		c-10.252,12.984-26.111,21.329-43.912,21.329c-17.756,0-33.656-8.345-43.896-21.329c-10.23,12.984-26.1,21.329-43.891,21.329
		c-5.201,0-10.24-0.726-15.049-2.067v181.231h293.506V133.561c-4.811,1.342-9.85,2.067-15.047,2.067
		C277.523,135.628,261.66,127.283,251.43,114.299z M146.389,213.882H52.951v-48.945h93.438V213.882z M274.305,282.823h-77.256
		V164.936h77.256V282.823z"/>
	<path d="M314.742,12.438H12.484L0,81.608c0.531,17.138,14.631,30.911,31.91,30.911c17.574,0,31.908-14.309,31.908-31.898h23.984
		c0,17.59,14.318,31.898,31.895,31.898c17.619,0,31.91-14.309,31.91-31.898h24.016c0,17.59,14.289,31.898,31.906,31.898
		c17.58,0,31.887-14.309,31.887-31.898h23.992c0,17.59,14.336,31.898,31.912,31.898c17.275,0,31.381-13.773,31.91-30.911
		L314.742,12.438z"/>
</g>
</svg>